<?xml version="1.0" encoding="UTF-8"?>
<!-- Generated by Pixelmator Pro 2.4.7 -->
<svg width="48" height="48" viewBox="0 0 48 48" xmlns="http://www.w3.org/2000/svg" xmlns:xlink="http://www.w3.org/1999/xlink">
    <path id="Path" fill="#24232c" stroke="none" d="M 24 4 C 18.5 4 14 8.5 14 14 L 14 18 L 18 18 L 18 14 C 18 10.700001 20.700001 8 24 8 C 27.299999 8 30 10.700001 30 14 L 30 18 L 34 18 L 34 14 C 34 8.5 29.5 4 24 4 Z"/>
    <path id="path1" fill="#a4ffaf" stroke="none" d="M 36 44 L 12 44 C 9.8 44 8 42.200001 8 40 L 8 22 C 8 19.799999 9.8 18 12 18 L 36 18 C 38.200001 18 40 19.799999 40 22 L 40 40 C 40 42.200001 38.200001 44 36 44 Z"/>
    <path id="path2" fill="#24232c" stroke="none" d="M 24 28 C 22.343145 28 21 29.343145 21 31 C 21 32.656853 22.343145 34 24 34 C 25.656855 34 27 32.656853 27 31 C 27 29.343145 25.656855 28 24 28 Z"/>
</svg>
